<svg xmlns="http://www.w3.org/2000/svg" viewBox="0 0 32.44 32.59"><defs><style>.cls-1{fill:#999;}</style></defs><title>资源 22 1</title><g id="图层_2" data-name="图层 2"><g id="图层_1-2" data-name="图层 1"><path class="cls-1" d="M12.18,22.34a1.88,1.88,0,0,0,.18.23,23.51,23.51,0,0,0,3.08,3.22l1.05.88,1-.88a24.33,24.33,0,0,0,3.07-3.23,2.08,2.08,0,0,0,.18-.23c2.14-2.92,4.81-7.15,5.41-10.81a10.86,10.86,0,0,0,.12-1.4,10.08,10.08,0,0,0-2.94-7.23,9.66,9.66,0,0,0-13.78,0,10.14,10.14,0,0,0-3,7.27,10.57,10.57,0,0,0,.11,1.34c.65,3.92,3.65,8.45,5.41,10.83ZM16.49,6.62a4.09,4.09,0,1,1-4.1,4.09,4.1,4.1,0,0,1,4.1-4.09Zm0,0"/><path class="cls-1" d="M32,8.12l-1.12.33h0l-3.22,1c0,.58,0,1-.15,1.9l3.38-1.15v18l-9.58,2.82v0L9.83,27.65h0L1.63,30.4V12.66L5,11.81a9.32,9.32,0,0,1-.11-1.53v-.06L0,11.45V32.57L1.63,32l8.18-2.74,11.43,3.31L32.44,29.3V8L32,8.12Zm0,0"/></g></g></svg>