<svg id="图层_1" data-name="图层 1" xmlns="http://www.w3.org/2000/svg" viewBox="0 0 50 50"><defs><style>.cls-1{fill:#f79030;}</style></defs><title>08-04纯icon</title><path class="cls-1" d="M34.13,0H15.87A9.25,9.25,0,0,0,6.76,9.38V40.6a3.1,3.1,0,0,0,3,3.15v3.1a3.08,3.08,0,0,0,3,3.15h3a3.09,3.09,0,0,0,3-3.15v-3.1H31.08v3.1a3.08,3.08,0,0,0,3,3.15h3a3.09,3.09,0,0,0,3-3.15v-3.1a3.11,3.11,0,0,0,3-3.15V9.38A9.25,9.25,0,0,0,34.13,0ZM17.42,40.63h-5A2.66,2.66,0,0,1,9.8,37.94v-.88a1.78,1.78,0,0,1,2.49-1.83L17.5,37a2.33,2.33,0,0,1,1.43,2.05,1.52,1.52,0,0,1-1.5,1.56ZM40.2,37.94a2.66,2.66,0,0,1-2.64,2.69h-5a1.52,1.52,0,0,1-1.5-1.56,2.32,2.32,0,0,1,1.43-2l5.2-1.78a1.78,1.78,0,0,1,2.49,1.83v.88Zm0-6.69H9.8V9.38c0-1.18.4-2.63,3-3.13H37.16c2.24.5,3,2,3,3.13V31.25Zm0,0"/></svg>