<svg xmlns="http://www.w3.org/2000/svg" viewBox="0 0 33 40"><defs><style>.cls-1{fill:#ed8b33;fill-rule:evenodd;}</style></defs><title>sy_1</title><g id="图层_2" data-name="图层 2"><g id="图层_1-2" data-name="图层 1"><path class="cls-1" d="M0,16.51A16,16,0,0,1,10.81,1,16.52,16.52,0,0,1,29.89,6.82a16.19,16.19,0,0,1,0,19.13c-3.11,4.06-6.38,8-9.67,11.91-2.48,2.94-5.17,2.84-7.62-.17-3-3.7-6.06-7.37-9-11.14A15.5,15.5,0,0,1,0,16.51Zm2.1,0A11.49,11.49,0,0,0,4.7,24.39c3.15,4.23,6.55,8.28,9.9,12.37,1.32,1.63,2.75,1.27,4-.18,3.23-4,6.61-7.82,9.57-12a13.78,13.78,0,0,0-.31-17.09,14.46,14.46,0,0,0-16-4.72A14.18,14.18,0,0,0,2.11,16.5Z"/><path class="cls-1" d="M9.35,16.28a6.77,6.77,0,0,1,6.81-7c4.27,0,7.52,3,7.55,6.92a7.23,7.23,0,0,1-7.32,7.24,7,7,0,0,1-7-7.16Zm7.15-4.94a4.86,4.86,0,0,0-5,4.82,5,5,0,0,0,10.05.28,4.88,4.88,0,0,0-5-5.1Z"/></g></g></svg>